<?xml version="1.0" encoding="utf-8"?>
<!-- Generator: Adobe Illustrator 19.2.1, SVG Export Plug-In . SVG Version: 6.00 Build 0)  -->
<svg version="1.1" id="Layer_1" xmlns="http://www.w3.org/2000/svg" xmlns:xlink="http://www.w3.org/1999/xlink" x="0px" y="0px"
	 viewBox="0 0 29.9 30.6" style="enable-background:new 0 0 29.9 30.6;" xml:space="preserve">
<style type="text/css">
	.st0{fill:#898989;}
</style>
<title>spinner</title>
<path class="st0" d="M14.2,11c1.4-0.2,2.4-1.6,2.2-3l-1-5.8c-0.3-1.4-1.8-2.3-3.2-2c-1.3,0.3-2.2,1.6-2,2.9l1,5.8
	C11.4,10.3,12.8,11.2,14.2,11L14.2,11L14.2,11z M18.3,12.5c1,1.1,2.6,1.2,3.8,0.3L26.7,9c1.1-0.9,1.3-2.6,0.4-3.7l0,0
	c-1-1.1-2.6-1.3-3.8-0.3l-4.6,3.8C17.6,9.7,17.4,11.4,18.3,12.5L18.3,12.5z M19.1,16.7c-0.5,1.3,0.2,2.8,1.5,3.3l0,0l5.6,2
	c1.4,0.5,2.9-0.1,3.5-1.5c0.5-1.4-0.2-2.9-1.6-3.4c0,0,0,0,0,0l0,0l-5.6-2C21.1,14.7,19.6,15.4,19.1,16.7L19.1,16.7z M15.7,19.5
	c-1.4,0.2-2.4,1.6-2.2,3.1l1,5.8c0.3,1.4,1.8,2.3,3.2,2c1.3-0.3,2.2-1.6,2-2.9l-1-5.9C18.5,20.2,17.1,19.3,15.7,19.5L15.7,19.5z
	 M11.5,18.1c-1-1.1-2.7-1.3-3.8-0.3l-4.6,3.8c-1.1,0.9-1.3,2.5-0.4,3.6c0,0,0,0,0,0l0,0c1,1.1,2.6,1.2,3.8,0.3l4.6-3.8
	C12.3,20.8,12.5,19.2,11.5,18.1C11.6,18.1,11.6,18.1,11.5,18.1L11.5,18.1L11.5,18.1L11.5,18.1z M10.8,13.8c0.5-1.4-0.2-2.9-1.6-3.3
	c0,0,0,0,0,0l-5.6-2C2.2,8,0.7,8.6,0.2,10c-0.5,1.3,0.2,2.9,1.5,3.4c0,0,0,0,0.1,0l5.7,2C8.8,15.9,10.3,15.2,10.8,13.8z"/>
</svg>
